<svg width="196" height="62" viewBox="0 0 196 62" fill="none" xmlns="http://www.w3.org/2000/svg">
    <g clip-path="url(#clip0_1_2411)">
        <path d="M5.25 1.50121L44.6166 1.50122L48.7511 7.87506L9.23063 7.87505L5.25 1.50121Z" fill="#F49A24" fill-opacity="0.29"/>
        <path d="M11.3922 5.97313H87.7326L95.3295 30.9588H18.4806L11.3922 5.97313Z" fill="#F49A24" fill-opacity="0.32"/>
        <path d="M19.0057 0.0457153H198.837L216.732 50.5023H35.7035L19.0057 0.0457153Z" fill="#F49A24"/>
        <path d="M99.7384 51.1733H127.463L129.574 54.5598H101.664L99.7384 51.1733Z" fill="white"/>
        <path d="M164.253 53.1328H195.778L199.538 58.9291H167.873L164.253 53.1328Z" fill="#F49A24" fill-opacity="0.32"/>
        <path d="M88.0088 53.2602H109.017L110.616 55.8262H89.4681L88.0088 53.2602Z" fill="white" fill-opacity="0.39"/>
        <path d="M167.918 51.3109H198.028L200.917 55.7099H170.667L167.918 51.3109Z" fill="#F49A24"/>
        <path d="M3.1745 -0.00163269L30.7582 -0.00162383L33.6553 4.46445L5.96368 4.46444L3.1745 -0.00163269Z" fill="#F49A24"/>
        <path d="M17.392 13.5226L34.8503 13.5226L43.9315 44.3038H26.3332L17.392 13.5226Z" fill="white" fill-opacity="0.29"/>
    </g>
    <defs>
        <clipPath id="clip0_1_2411">
            <rect width="197" height="62" fill="white" transform="matrix(-1 0 0 1 197 0)"/>
        </clipPath>
    </defs>
</svg>
