<svg width="41" height="22" viewBox="0 0 41 22" fill="none" xmlns="http://www.w3.org/2000/svg">
    <path d="M-9 0.000254734L34.5958 -2.67029e-05L40.9904 21.0313L-9 21.0316V0.000254734Z" fill="#F49A24" fill-opacity="0.66"/>
    <g clip-path="url(#clip0_1_2405)">
        <path d="M22.3308 14.8092C22.3308 15.4088 22.792 15.893 23.36 15.893H31.2219C31.4213 15.893 31.6094 15.7747 31.6859 15.5828C31.7577 15.4028 31.7247 15.2059 31.6141 15.0637L25.5582 7.42224H28.5077C28.5351 7.42224 28.5625 7.42224 28.588 7.42224C28.9472 7.41925 29.2439 7.41925 29.4896 7.42224H30.2797C30.3714 7.42224 30.4545 7.46102 30.5141 7.52465C30.5301 7.54156 30.5443 7.56045 30.5566 7.58034C30.5925 7.63701 30.6114 7.70463 30.6114 7.77622C30.6076 8.09342 30.8732 8.343 31.1756 8.343H31.1803C31.3533 8.343 31.5064 8.25649 31.6046 8.12325C31.6122 8.1133 31.6198 8.10336 31.6273 8.09242V8.09043C31.6349 8.08049 31.6415 8.06856 31.6472 8.05762C31.6528 8.04768 31.6576 8.03873 31.6632 8.02779C31.6632 8.0258 31.6651 8.02481 31.6661 8.02381C31.6661 8.02381 31.6661 8.02083 31.668 8.02083C31.6727 8.00989 31.6774 7.99895 31.6812 7.98802C31.6869 7.97509 31.6916 7.96117 31.6973 7.94725C31.7058 7.91941 31.7124 7.89157 31.7171 7.86273C31.7199 7.84682 31.7209 7.8319 31.7228 7.816C31.7228 7.80108 31.7247 7.78616 31.7247 7.77224V6.90419C31.7247 6.00332 31.0301 5.27248 30.1738 5.27248H21.6977C21.6863 5.27248 21.6759 5.28242 21.6759 5.29535V5.30728L27.4814 13.7283H23.361C22.792 13.7283 22.3318 14.2136 22.3318 14.8112L22.3308 14.8092Z" fill="white"/>
        <path d="M20.6049 14.8092C20.6049 15.4088 20.1437 15.893 19.5757 15.893H11.6987C11.4993 15.893 11.3112 15.7747 11.2347 15.5828C11.1629 15.4028 11.1959 15.2059 11.3065 15.0637L17.3624 7.42222H14.4129C14.3855 7.42222 14.3581 7.42222 14.3326 7.42222C13.9735 7.41924 13.6767 7.41924 13.431 7.42222H12.6409C12.5493 7.42222 12.4661 7.461 12.4066 7.52464C12.3905 7.54154 12.3763 7.56043 12.364 7.58032C12.3281 7.637 12.3092 7.70461 12.3092 7.77621C12.313 8.0934 12.0474 8.34298 11.745 8.34298H11.7403C11.5673 8.34298 11.4143 8.25647 11.316 8.12323C11.3084 8.11329 11.3008 8.10334 11.2933 8.09241V8.09042C11.2857 8.08047 11.2791 8.06854 11.2734 8.0576C11.2678 8.04766 11.263 8.03871 11.2574 8.02777C11.2574 8.02579 11.2555 8.02479 11.2545 8.0238C11.2545 8.0238 11.2545 8.02081 11.2526 8.02081C11.2479 8.00988 11.2432 7.99894 11.2394 7.988C11.2337 7.97507 11.229 7.96115 11.2234 7.94723C11.2148 7.91939 11.2082 7.89155 11.2035 7.86271C11.2007 7.8468 11.1997 7.83189 11.1978 7.81598C11.1978 7.80107 11.1959 7.78615 11.1959 7.77223V6.90417C11.1959 6.0033 11.8906 5.27246 12.7468 5.27246H21.223C21.2343 5.27246 21.2447 5.2824 21.2447 5.29533V5.30726L15.4392 13.7283H19.5748C20.1437 13.7283 20.6039 14.2136 20.6039 14.8112L20.6049 14.8092Z" fill="white"/>
    </g>
    <defs>
        <clipPath id="clip0_1_2405">
            <rect width="21.1039" height="12.0593" fill="white" transform="matrix(-1 0 0 1 31.768 4.48636)"/>
        </clipPath>
    </defs>
</svg>
