<svg width="192" height="29" viewBox="0 0 192 29" fill="none" xmlns="http://www.w3.org/2000/svg">
    <path d="M133.811 25.6083C133.811 26.7377 132.903 27.6499 131.784 27.6499H116.298C115.906 27.6499 115.535 27.427 115.384 27.0655C115.243 26.7265 115.308 26.3556 115.526 26.0878L127.454 11.6936H121.645C121.591 11.6936 121.537 11.6936 121.486 11.6936C120.779 11.688 120.195 11.688 119.711 11.6936H118.154C117.974 11.6936 117.81 11.7667 117.693 11.8866C117.661 11.9184 117.633 11.954 117.609 11.9914C117.538 12.0982 117.501 12.2256 117.501 12.3604C117.508 12.9579 116.985 13.428 116.39 13.428H116.38C116.04 13.428 115.738 13.2651 115.545 13.0141C115.53 12.9954 115.515 12.9766 115.5 12.956V12.9523C115.485 12.9336 115.472 12.9111 115.461 12.8905C115.45 12.8718 115.44 12.8549 115.429 12.8343C115.429 12.8306 115.425 12.8287 115.424 12.8268C115.424 12.8268 115.424 12.8212 115.42 12.8212C115.411 12.8006 115.401 12.78 115.394 12.7594C115.383 12.735 115.373 12.7088 115.362 12.6826C115.345 12.6301 115.332 12.5777 115.323 12.5234C115.317 12.4934 115.316 12.4653 115.312 12.4353C115.312 12.4073 115.308 12.3792 115.308 12.3529V10.7178C115.308 9.02083 116.676 7.64417 118.363 7.64417H135.058C135.081 7.64417 135.101 7.6629 135.101 7.68724V7.70972L123.666 23.5723H131.782C132.903 23.5723 133.809 24.4863 133.809 25.612L133.811 25.6083Z" fill="white"/>
    <path d="M137.21 25.6082C137.21 26.7377 138.119 27.6498 139.237 27.6498H154.753C155.146 27.6498 155.516 27.4269 155.667 27.0654C155.808 26.7264 155.743 26.3556 155.525 26.0877L143.597 11.6936H149.407C149.461 11.6936 149.515 11.6936 149.565 11.6936C150.272 11.688 150.857 11.688 151.341 11.6936H152.897C153.078 11.6936 153.241 11.7666 153.359 11.8865C153.39 11.9183 153.418 11.9539 153.442 11.9914C153.513 12.0981 153.55 12.2255 153.55 12.3604C153.543 12.9579 154.066 13.428 154.662 13.428H154.671C155.012 13.428 155.313 13.265 155.507 13.014C155.522 12.9953 155.537 12.9766 155.552 12.956V12.9522C155.566 12.9335 155.579 12.911 155.591 12.8904C155.602 12.8717 155.611 12.8548 155.622 12.8342C155.622 12.8305 155.626 12.8286 155.628 12.8267C155.628 12.8267 155.628 12.8211 155.632 12.8211C155.641 12.8005 155.65 12.7799 155.658 12.7593C155.669 12.735 155.678 12.7087 155.689 12.6825C155.706 12.6301 155.719 12.5776 155.728 12.5233C155.734 12.4933 155.736 12.4653 155.74 12.4353C155.74 12.4072 155.743 12.3791 155.743 12.3529V10.7177C155.743 9.02077 154.375 7.6441 152.689 7.6441H135.993C135.971 7.6441 135.95 7.66283 135.95 7.68718V7.70966L147.385 23.5723H139.239C138.119 23.5723 137.212 24.4863 137.212 25.612L137.21 25.6082Z" fill="white"/>
    <path d="M17.316 8.78455V8.80193H17.3486C17.339 8.79614 17.3294 8.79034 17.316 8.78455Z" fill="white"/>
    <path d="M23.7883 2.85639C23.6487 2.15775 23.403 1.59772 23.0437 1.18004C22.6882 0.762353 22.2116 0.460797 21.6141 0.279114C21.0184 0.0993043 20.2794 0.00939941 19.3915 0.00939941H17.3178V8.78262C17.3289 8.78824 17.3382 8.79386 17.3494 8.79948H17.3178V8.78262C16.9157 8.56909 16.4485 8.36306 15.9179 8.17389C15.4377 8.02966 14.8662 7.89668 14.2016 7.75433C13.5408 7.61573 12.7981 7.54643 11.9809 7.54643C10.1399 7.54643 8.52784 7.81427 7.15034 8.33871C5.76912 8.87627 4.61872 9.59738 3.69915 10.5189C2.77957 11.4367 2.09641 12.5287 1.65523 13.7836C1.21034 15.0404 0.988823 16.3815 0.988823 17.8031C0.988823 19.2247 1.21034 20.5677 1.65523 21.8226C2.09641 23.0794 2.77026 24.1676 3.67308 25.0891C4.5759 26.0106 5.69466 26.7392 7.0219 27.2674C8.34727 27.7938 9.9165 28.0616 11.7259 28.0616C12.7478 28.0616 13.6227 27.953 14.358 27.7263C15.0896 27.5034 15.6927 27.2356 16.1674 26.9284C16.75 26.5913 17.2284 26.2036 17.6007 25.7578H17.8557L18.7027 26.6493C19.3058 27.2824 20.1379 27.6402 21.0091 27.6402H22.2042C23.1889 27.6402 23.9875 26.8366 23.9875 25.8458V5.45426C23.9875 4.41849 23.9167 3.55502 23.7864 2.85639H23.7883ZM17.3476 21.3805C17.3476 23.6094 15.3911 25.415 13.176 25.415H12.7627C12.7273 25.415 12.692 25.415 12.6547 25.4113C12.5486 25.4169 12.4388 25.4206 12.329 25.4206C11.4411 25.4206 10.6853 25.0498 10.0524 24.6284C9.42321 24.2125 8.92061 23.7892 8.54645 23.0344C8.47385 22.8883 8.41801 22.7628 8.37892 22.6542C8.06433 22.008 7.88935 21.2813 7.88935 20.5115V15.3176C7.88935 12.6092 10.0729 10.414 12.7627 10.414H12.9973C13.6488 10.414 14.2351 10.4852 14.7638 10.6238C15.2925 10.7643 15.7392 10.901 16.1152 11.0396C16.482 11.2026 16.8245 11.373 17.1465 11.5566C17.2042 11.5884 17.2619 11.6221 17.3178 11.6558C17.3252 11.6614 17.3364 11.6652 17.3438 11.6708V21.3824L17.3476 21.3805Z" fill="white"/>
    <path d="M17.3486 8.80193H17.316V8.78455C17.3275 8.79034 17.3371 8.79614 17.3486 8.80193Z" fill="white"/>
    <path d="M48.5758 15.8252C48.4418 13.7012 47.8629 11.2757 46.6864 10.0114C45.4188 8.7808 43.7583 8.18144 42.3976 7.89112H42.3939C41.1616 7.68696 39.7673 7.63451 38.2018 7.63451C37.433 7.63451 36.6921 7.61578 35.9755 7.61578C35.1341 7.61578 34.3318 7.64013 33.5667 7.75251C33.0734 7.82556 32.6285 7.8855 32.232 7.95293C32.2227 7.95293 32.2134 7.95667 32.2041 7.95855C32.1892 7.95855 32.1762 7.96416 32.1613 7.96604C32.0794 7.98477 31.9937 8.00724 31.936 8.02223C31.9267 8.02223 31.9174 8.02785 31.9081 8.02972C31.8765 8.03909 31.856 8.04658 31.856 8.04658C30.8675 8.37061 30.3165 8.82013 30.0168 9.17601C29.881 9.36144 29.7693 9.55623 29.6762 9.76039V9.76414C29.5626 10.0207 29.4807 10.2923 29.4379 10.5752C29.4137 10.7231 29.3932 10.873 29.3728 11.0209C29.2518 11.9631 29.9908 12.7947 30.9364 12.7947C31.5768 12.7947 32.34 12.3227 32.6508 11.7552C32.7253 11.6203 32.8035 11.4929 32.8854 11.3749C33.226 10.8879 33.6207 10.504 34.06 10.223C34.503 9.94769 34.9889 9.76039 35.5213 9.66299C36.0443 9.56372 36.5991 9.51502 37.1817 9.51502C38.71 9.51502 39.9051 10.0039 40.7576 10.9835C41.6083 11.9593 41.9564 13.454 41.9564 15.9638H41.1913C38.4345 15.9638 36.1672 16.1043 34.3913 16.3834C32.6192 16.6643 31.2138 17.0727 30.1732 17.6177C29.1382 18.1609 28.4122 18.8183 27.999 19.5862C27.5951 20.3542 27.3903 21.729 27.3903 22.7348C27.3903 24.4111 28.1293 25.7691 29.6129 26.818C31.0946 27.8669 33.2484 28.3894 36.0778 28.3894C37.1705 28.3894 38.1087 28.2789 38.8887 28.0542C39.6705 27.8313 40.3015 27.5653 40.7818 27.2563C41.3589 26.9191 41.8373 26.5314 42.2133 26.0875H42.4683L43.3637 27.0277C43.9352 27.629 44.7282 27.9699 45.5547 27.9699H46.6343C47.7214 27.9699 48.6038 27.0821 48.6038 25.9882V16.6606C48.6038 16.374 48.5963 16.0931 48.5777 15.8196L48.5758 15.8252ZM42.0458 20.5864C42.0458 20.9049 42.0141 21.2158 41.9564 21.5173C41.7088 22.8097 40.9568 23.9185 39.9144 24.6303C39.9106 24.634 39.9088 24.6359 39.9051 24.6359C39.7989 24.6958 39.691 24.7576 39.5793 24.8176C39.0562 25.1004 38.3972 25.239 37.6136 25.239C36.5935 25.239 35.6367 24.9937 35.0429 24.3887C34.745 24.0852 34.598 23.9635 34.503 23.7818C34.4267 23.6226 34.3597 23.4596 34.3132 23.2892C34.3001 23.2424 34.2871 23.1937 34.2759 23.145C34.261 23.0888 34.2499 23.0345 34.2424 22.9783C34.2312 22.9221 34.2238 22.8659 34.2182 22.8078C34.2126 22.7554 34.207 22.7048 34.2033 22.6542C34.2033 22.6468 34.2033 22.6374 34.2033 22.6318C34.1996 22.5737 34.1977 22.5156 34.1977 22.4595C34.1977 20.1875 36.0294 17.8556 38.2856 17.8556H41.1895C41.2732 17.8556 41.3551 17.8687 41.4296 17.8949C41.4519 17.9024 41.4743 17.9118 41.4985 17.9211C41.8224 18.0522 42.0495 18.3707 42.0495 18.7415V20.5883L42.0458 20.5864Z" fill="white"/>
    <path d="M111.859 15.8252C111.725 13.7012 111.146 11.2756 109.969 10.0113C108.701 8.78074 107.041 8.18137 105.68 7.89106H105.677C104.444 7.6869 103.05 7.63445 101.484 7.63445C100.716 7.63445 99.9748 7.61572 99.2582 7.61572C98.4168 7.61572 97.6145 7.64007 96.8494 7.75245C96.3561 7.8255 95.9112 7.88544 95.5147 7.95287C95.5054 7.95287 95.4961 7.95661 95.4868 7.95849C95.4719 7.95849 95.4589 7.9641 95.444 7.96598C95.3621 7.98471 95.2764 8.00718 95.2187 8.02217C95.2094 8.02217 95.2001 8.02779 95.1908 8.02966C95.1592 8.03902 95.1387 8.04652 95.1387 8.04652C94.1502 8.37055 93.5992 8.82007 93.2995 9.17595C93.1637 9.36138 93.052 9.55617 92.9589 9.76033V9.76408C92.8453 10.0207 92.7634 10.2923 92.7206 10.5751C92.6964 10.7231 92.676 10.8729 92.6555 11.0209C92.5345 11.963 93.2735 12.7946 94.2191 12.7946C94.8595 12.7946 95.6227 12.3226 95.9335 11.7551C96.008 11.6202 96.0862 11.4929 96.1681 11.3749C96.5087 10.8879 96.9034 10.5039 97.3427 10.223C97.7857 9.94763 98.2716 9.76033 98.804 9.66293C99.327 9.56366 99.8818 9.51496 100.464 9.51496C101.993 9.51496 103.188 10.0038 104.04 10.9834C104.891 11.9593 105.239 13.4539 105.239 15.9638H104.474C101.717 15.9638 99.4499 16.1042 97.674 16.3833C95.9019 16.6643 94.4965 17.0726 93.4559 17.6176C92.4209 18.1608 91.6949 18.8182 91.2817 19.5862C90.8778 20.3541 90.673 21.7289 90.673 22.7347C90.673 24.4111 91.412 25.769 92.8956 26.8179C94.3774 27.8668 96.5311 28.3894 99.3605 28.3894C100.453 28.3894 101.391 28.2789 102.171 28.0541C102.953 27.8312 103.584 27.5652 104.065 27.2562C104.642 26.9191 105.12 26.5313 105.496 26.0874H105.751L106.646 27.0277C107.218 27.6289 108.011 27.9698 108.837 27.9698H109.917C111.004 27.9698 111.886 27.082 111.886 25.9882V16.6605C111.886 16.374 111.879 16.093 111.86 15.8195L111.859 15.8252ZM105.327 20.5864C105.327 20.9048 105.295 21.2157 105.237 21.5173C104.99 22.8096 104.238 23.9185 103.195 24.6302C103.191 24.634 103.19 24.6358 103.186 24.6358C103.08 24.6958 102.972 24.7576 102.86 24.8175C102.337 25.1004 101.678 25.239 100.894 25.239C99.8743 25.239 98.9175 24.9936 98.3237 24.3886C98.0259 24.0852 97.8788 23.9634 97.7839 23.7817C97.7075 23.6225 97.6405 23.4596 97.594 23.2891C97.581 23.2423 97.5679 23.1936 97.5568 23.1449C97.5419 23.0887 97.5307 23.0344 97.5233 22.9782C97.5121 22.922 97.5046 22.8658 97.4991 22.8078C97.4935 22.7553 97.4879 22.7048 97.4842 22.6542C97.4842 22.6467 97.4842 22.6373 97.4842 22.6317C97.4804 22.5736 97.4786 22.5156 97.4786 22.4594C97.4786 20.1874 99.3103 17.8555 101.566 17.8555H104.47C104.554 17.8555 104.636 17.8686 104.71 17.8948C104.733 17.9023 104.755 17.9117 104.779 17.9211C105.103 18.0522 105.33 18.3706 105.33 18.7415V20.5882L105.327 20.5864Z" fill="white"/>
    <path d="M190.147 12.4894C189.564 11.4537 188.775 10.5771 187.772 9.85036C186.767 9.1255 185.577 8.56172 184.22 8.15715C182.856 7.74883 181.372 7.55029 179.769 7.55029C178.167 7.55029 176.687 7.77318 175.326 8.22083C173.961 8.66474 172.778 9.3128 171.77 10.165C170.767 11.0154 169.976 12.0849 169.393 13.3698C168.814 14.6528 168.526 16.1343 168.526 17.8088C168.526 19.2904 168.8 20.6521 169.341 21.892C169.889 23.1319 170.67 24.2164 171.694 25.1379C172.718 26.0576 173.952 26.7768 175.397 27.2938C176.847 27.8107 178.474 28.0673 180.281 28.0673C181.679 28.0673 182.897 27.9287 183.932 27.6478C184.972 27.3706 185.875 27.0128 186.644 26.582C187.409 26.1475 188.06 25.6699 188.582 25.1567C188.742 24.9993 188.894 24.8439 189.041 24.6903C189.546 24.1602 189.481 23.3061 188.909 22.8529C188.449 22.4876 187.796 22.9802 187.349 23.3623C186.752 23.8736 186.163 24.2014 185.363 24.6847C184.255 25.3552 182.817 25.6905 181.044 25.6905C179.377 25.6905 178.023 25.1098 176.981 23.9523C175.94 22.7929 175.425 21.3226 175.425 18.5561H189.987C190.46 18.5561 190.858 18.2022 190.91 17.7301C190.91 17.7264 190.91 17.7245 190.91 17.7208C190.942 17.4717 190.968 17.1832 190.985 16.8611C191.003 16.5408 191.011 16.2261 191.011 15.9189C191.011 14.6621 190.724 13.514 190.141 12.4876L190.147 12.4894ZM184.114 15.6942H175.426V13.9654C175.426 11.6279 177.251 9.71737 179.546 9.60125C179.62 9.5975 179.695 9.59563 179.769 9.59563C179.844 9.59563 179.918 9.59563 179.993 9.60125C180.553 9.6256 181.065 9.7436 181.532 9.9515C182.046 10.1856 182.567 10.4535 182.939 10.9835C183.669 11.7646 184.112 12.8135 184.112 13.9673V15.6961L184.114 15.6942Z" fill="white"/>
    <path d="M164.279 1.17632C163.958 0.754888 163.532 0.455205 162.998 0.275395C162.467 0.0918389 161.803 6.10352e-05 161.01 6.10352e-05H159.18V8.41366L159.167 22.2178C159.167 23.2517 159.226 24.117 159.351 24.8176C159.472 25.5162 159.694 26.0762 160.016 26.492C160.334 26.9135 160.762 27.2131 161.295 27.393C161.829 27.5765 162.493 27.6683 163.284 27.6683H165.114V22.4519C165.114 22.3751 165.114 22.2965 165.114 22.2178V20.8018L165.129 5.45055C165.129 4.41664 165.07 3.55318 164.945 2.8508C164.824 2.15216 164.602 1.59213 164.28 1.17444L164.279 1.17632Z" fill="white"/>
    <path d="M84.9194 9.37079C83.3539 8.15707 81.1555 7.55021 78.3242 7.55021C76.3491 7.55021 74.8134 7.79371 73.7282 8.28069C72.6355 8.77142 71.7531 9.32209 71.0681 9.93644C70.8671 9.73977 70.5655 9.50752 70.1746 9.24342C69.7818 8.97933 69.2866 8.72085 68.6928 8.46987C68.0953 8.22075 67.4047 8.00348 66.6191 7.82367C65.8373 7.63824 64.968 7.54834 64.0149 7.54834C62.4829 7.54834 61.1762 7.76936 60.1077 8.21888C59.069 8.6478 58.2462 9.08047 57.6375 9.51126C57.5965 9.53936 57.55 9.55434 57.4997 9.55434C57.4197 9.55434 57.3471 9.51314 57.3024 9.44945C56.9264 8.91939 56.3884 8.21888 55.6829 7.99412C54.9346 7.75625 54.0485 7.63824 53.0284 7.63824C52.4625 7.63824 52.0046 8.09901 52.0046 8.6684V25.2296C52.0046 26.5651 53.0806 27.6477 54.4078 27.6477H56.2432C57.5705 27.6477 58.6483 26.5651 58.6483 25.2278V14.3605C58.6483 12.2665 60.2733 10.4909 62.3545 10.4234C64.1862 10.3654 65.7387 11.5997 66.1836 13.2873C66.2673 13.6019 66.312 13.9335 66.312 14.2781C66.312 14.3549 66.312 14.4317 66.3064 14.5066C66.3139 14.7164 66.3194 14.9318 66.3194 15.1528V25.2278C66.3194 26.5632 67.3954 27.6458 68.7226 27.6458H70.5562C71.8834 27.6458 72.9612 26.5632 72.9612 25.2278V15.194C72.9612 14.9486 72.9556 14.7145 72.9463 14.4935C72.9463 14.4673 72.9426 14.4429 72.9426 14.4186C72.9426 14.3717 72.9389 14.323 72.9389 14.2762C72.9389 12.1466 74.6552 10.4197 76.7717 10.4197C78.622 10.4197 80.1689 11.7402 80.5263 13.4952C80.5263 13.5027 80.53 13.5102 80.53 13.5177C80.5784 13.763 80.6045 14.0159 80.6045 14.2762V14.2818C80.6231 14.5572 80.6305 14.8494 80.6305 15.1509V25.2259C80.6305 26.5613 81.7046 27.644 83.0337 27.644H84.8691C86.1964 27.644 87.2742 26.5613 87.2742 25.2259V15.2483C87.2742 12.5399 86.4924 10.5789 84.9231 9.36517L84.9194 9.37079Z" fill="white"/>
    <path d="M124.307 11.6912H122.371C122.855 11.6855 123.439 11.6855 124.146 11.6912C124.199 11.6912 124.253 11.6912 124.305 11.6912H124.307Z" fill="white"/>
</svg>
