<svg width="23" height="23" viewBox="0 0 23 23" fill="none" xmlns="http://www.w3.org/2000/svg">
    <g clip-path="url(#clip0_16_93)">
        <path d="M4.67713 20.2801L4.67712 20.2802L4.6806 20.2803L4.90794 20.2884L4.90793 20.2885H4.91211H11.733C13.677 20.2885 15.2981 18.7098 15.2981 16.7234V15.7182C15.2981 14.9042 14.636 14.2421 13.822 14.2421H13.4376C14.4637 13.0353 15.0383 11.4944 15.0383 9.89114C15.0383 6.18756 12.0249 3.17499 8.32213 3.17499C4.61937 3.17499 1.6068 6.18758 1.6068 9.89114C1.6068 11.4937 2.18141 13.0345 3.20743 14.2413H2.82307C2.00909 14.2413 1.34699 14.9034 1.34699 15.7174V16.7225C1.34699 18.6098 2.82016 20.1584 4.67713 20.2801ZM11.5446 19.5041H5.10137L5.10212 17.9656V17.9656C5.10212 17.59 5.40716 17.2844 5.78248 17.2844H10.8642C11.2388 17.2844 11.5446 17.59 11.5446 17.9656V19.5041ZM20.0817 12.0021H17.5V10.7023H19.8707C19.8977 10.7023 19.9273 10.7012 19.9541 10.7002C19.9658 10.6998 19.977 10.6994 19.9872 10.6991C20.0241 10.698 20.0526 10.6983 20.0746 10.7011C20.0769 10.7014 20.0791 10.7017 20.081 10.702L20.0817 12.0021ZM2.13134 15.7174C2.13134 15.3362 2.44191 15.0257 2.82307 15.0257H13.822C14.2032 15.0257 14.5137 15.3362 14.5137 15.7174V16.7225C14.5137 18.0511 13.5767 19.1654 12.3281 19.4389V17.9648C12.3281 17.1573 11.6709 16.5001 10.8634 16.5001H5.78167C4.97418 16.5001 4.31696 17.1573 4.31696 17.9648V19.4389C3.06847 19.1661 2.13134 18.0512 2.13134 16.7225V15.7174ZM12.3539 14.2413H4.29113C3.08157 13.1205 2.39115 11.5425 2.39115 9.89032C2.39115 6.61958 5.0522 3.95853 8.32294 3.95853C11.5937 3.95853 14.2547 6.61958 14.2547 9.89032C14.2547 11.5424 13.5636 13.1196 12.3539 14.2413ZM16.7164 10.6836L16.7157 12.0658C16.2296 12.2296 15.8777 12.6898 15.8777 13.2313V19.0576C15.8777 19.7361 16.4295 20.2869 17.1078 20.2869H20.474C21.1523 20.2869 21.7041 19.7352 21.7041 19.0576V13.2313C21.7041 12.6898 21.3522 12.2297 20.8662 12.0658V10.6836C20.8662 10.3176 20.6079 10.0103 20.2637 9.93536V6.20831C20.2637 5.94383 20.0488 5.73007 19.7855 5.73007C18.4251 5.73007 17.3189 6.83629 17.3189 8.19668V9.93534C16.9748 10.0101 16.7165 10.3168 16.7164 10.6835C16.7164 10.6835 16.7164 10.6835 16.7164 10.6836ZM16.6621 13.2313C16.6621 12.9858 16.8622 12.7856 17.1078 12.7856H20.474C20.7196 12.7856 20.9197 12.9858 20.9197 13.2313V19.0576C20.9197 19.3032 20.7196 19.5033 20.474 19.5033H17.1078C16.8622 19.5033 16.6621 19.3032 16.6621 19.0576V13.2313ZM18.1024 9.9179V8.19668C18.1024 7.374 18.6972 6.68668 19.4794 6.54221V9.9179H18.1024Z" fill="#F89C26" stroke="#F89C26" stroke-width="0.233878"/>
        <path d="M19.8689 10.4084H17.9057C17.1204 6.6784 18.8873 6.07309 19.8689 6.23669V10.4084Z" fill="#F89C26" fill-opacity="0.3"/>
        <path d="M11.7705 19.9788H4.89948V17.0341C6.47701 17.0341 9.42175 16.9976 10.0528 16.7887C10.6838 16.5798 11.42 17.0193 11.7705 17.3675V19.9788Z" fill="#F89C26" fill-opacity="0.3"/>
    </g>
    <defs>
        <clipPath id="clip0_16_93">
            <rect width="22.25" height="22.25" fill="white" transform="translate(0.375 0.375)"/>
        </clipPath>
    </defs>
</svg>
