<svg width="25" height="25" viewBox="0 0 25 25" fill="none" xmlns="http://www.w3.org/2000/svg">
    <path d="M20.3883 10.7249H5.48633L6.80121 4.51208L18.6351 4.95586L20.3883 10.7249Z" fill="#F49A24" fill-opacity="0.3"/>
    <path d="M21.2891 8.94984C20.9855 8.94984 20.7193 8.74716 20.6385 8.45452L19.6601 4.91151C19.5542 4.54136 19.3327 4.21592 19.0288 3.98391C18.7249 3.75191 18.3549 3.62583 17.9743 3.62457H7.0247C6.64401 3.62586 6.27398 3.75201 5.97007 3.98414C5.66615 4.21627 5.44471 4.54186 5.33894 4.91213L4.33829 8.45816C4.25623 8.74899 3.99086 8.94984 3.68866 8.94984H2.65547C2.28268 8.94984 1.98047 9.25205 1.98047 9.62484V10.0499C1.98047 10.4227 2.28268 10.7249 2.65547 10.7249H3.05864C3.43143 10.7249 3.73364 11.0271 3.73364 11.3999V16.9377C3.73422 17.4083 3.91912 17.8595 4.24778 18.1923C4.41558 18.3622 4.61388 18.4941 4.82964 18.5827C5.17422 18.7241 5.48682 19.0145 5.48682 19.387V20.7005C5.48682 21.0733 5.78902 21.3755 6.16182 21.3755H6.56499C6.93778 21.3755 7.23999 21.0732 7.23999 20.7005V19.3878C7.23999 19.015 7.5422 18.7128 7.91499 18.7128H17.084C17.4568 18.7128 17.759 19.015 17.759 19.3878V20.7005C17.759 21.0733 18.0612 21.3755 18.434 21.3755H18.8372C19.21 21.3755 19.5122 21.0732 19.5122 20.7005V19.387C19.5122 19.0145 19.8248 18.7241 20.1694 18.5827C20.3851 18.4941 20.5834 18.3622 20.7512 18.1923C21.0799 17.8595 21.2648 17.4083 21.2654 16.9377V11.3999C21.2654 11.0271 21.5676 10.7249 21.9404 10.7249H22.3436C22.7163 10.7249 23.0186 10.4227 23.0186 10.0499V9.62484C23.0186 9.25205 22.7163 8.94984 22.3436 8.94984H21.2891ZM6.88595 5.89133C6.96802 5.6005 7.23339 5.39966 7.53557 5.39966H17.4636C17.7658 5.39966 18.0312 5.60051 18.1132 5.89135L18.9845 8.97907C19.106 9.40979 18.7824 9.83738 18.3349 9.83738H6.66418C6.21663 9.83738 5.893 9.40977 6.01455 8.97905L6.88595 5.89133ZM18.8372 15.1626C19.21 15.1626 19.5122 15.4649 19.5122 15.8376V16.2627C19.5122 16.6355 19.21 16.9377 18.8372 16.9377H6.16182C5.78902 16.9377 5.48682 16.6355 5.48682 16.2627V15.8376C5.48682 15.4649 5.78902 15.1626 6.16182 15.1626H6.56499C6.93778 15.1626 7.23999 14.8604 7.23999 14.4876V14.0626C7.23999 13.6898 6.93778 13.3876 6.56499 13.3876H6.16182C5.78902 13.3876 5.48682 13.0854 5.48682 12.7126V12.2875C5.48682 11.9147 5.78902 11.6125 6.16182 11.6125H18.8372C19.21 11.6125 19.5122 11.9147 19.5122 12.2875V12.7126C19.5122 13.0854 19.21 13.3876 18.8372 13.3876H18.434C18.0612 13.3876 17.759 13.6898 17.759 14.0626V14.4876C17.759 14.8604 18.0612 15.1626 18.434 15.1626H18.8372Z" fill="#F89C26"/>
</svg>
