<svg width="25" height="25" viewBox="0 0 25 25" fill="none" xmlns="http://www.w3.org/2000/svg">
    <path fill-rule="evenodd" clip-rule="evenodd" d="M7.84537 4.1532C7.83516 4.21156 7.82983 4.2716 7.82983 4.33289C7.82983 4.66682 7.9879 4.96384 8.2333 5.1532H5.36448C4.66685 5.1532 4.10132 5.71873 4.10132 6.41636V20.6874C4.10132 21.385 4.66685 21.9506 5.36448 21.9506H19.6355C20.3331 21.9506 20.8987 21.385 20.8987 20.6874V6.41636C20.8987 5.71873 20.3331 5.1532 19.6355 5.1532H16.8401C17.0855 4.96384 17.2435 4.66682 17.2435 4.33289C17.2435 4.2716 17.2382 4.21156 17.228 4.1532H19.6355C20.8854 4.1532 21.8987 5.16645 21.8987 6.41636V20.6874C21.8987 21.9373 20.8854 22.9506 19.6355 22.9506H5.36448C4.11457 22.9506 3.10132 21.9373 3.10132 20.6874V6.41636C3.10132 5.16645 4.11457 4.1532 5.36448 4.1532H7.84537Z" fill="#F89C26"/>
    <path d="M7.55334 5.82201C7.55334 5.01412 7.74334 3.31959 8.4957 2.87947C8.52162 2.86431 8.55434 2.8744 8.56923 2.90047L12.4703 9.72741C12.4865 9.75562 12.4756 9.79157 12.4465 9.80609L7.63523 12.2117C7.59761 12.2305 7.55334 12.2032 7.55334 12.1611V5.82201Z" fill="#F49A24" fill-opacity="0.3"/>
    <path d="M17.4998 5.82201C17.4998 5.01412 17.3098 3.31959 16.5574 2.87947C16.5315 2.86431 16.4988 2.8744 16.4839 2.90047L12.5828 9.72741C12.5666 9.75562 12.5775 9.79157 12.6066 9.80609L17.4179 12.2117C17.4555 12.2305 17.4998 12.2032 17.4998 12.1611V5.82201Z" fill="#F49A24" fill-opacity="0.3"/>
    <circle cx="12.5003" cy="13.242" r="0.494667" fill="#F89C26" stroke="#F89C26"/>
    <circle cx="12.5003" cy="16.21" r="0.494667" fill="#F89C26" stroke="#F89C26"/>
    <path d="M8.54268 2.85398L8.31907 2.40677L8.31907 2.40677L8.54268 2.85398ZM7.63523 12.2117L7.41162 11.7645L7.41161 11.7645L7.63523 12.2117ZM12.4747 9.79197L12.2511 9.34476L12.2511 9.34476L12.4747 9.79197ZM12.5253 9.79197L12.7489 9.34476L12.7489 9.34476L12.5253 9.79197ZM17.3648 12.2117L17.5884 11.7645L17.5884 11.7645L17.3648 12.2117ZM16.952 2.85398L17.3056 2.50043V2.50043L16.952 2.85398ZM12.0053 1.85931C11.5776 1.85931 10.891 1.88477 10.2061 1.96134C9.54258 2.03552 8.80239 2.16511 8.31907 2.40677L8.76629 3.30119C9.07443 3.14712 9.65335 3.02937 10.3172 2.95515C10.9596 2.88333 11.6086 2.85931 12.0053 2.85931V1.85931ZM8.31907 2.40677C7.99805 2.56728 7.77442 2.8444 7.61771 3.12486C7.45909 3.40873 7.34681 3.73552 7.26634 4.05515C7.10549 4.69407 7.05334 5.37976 7.05334 5.82198H8.05334C8.05334 5.43976 8.10013 4.83931 8.23608 4.29928C8.30402 4.02944 8.3896 3.79354 8.49068 3.61263C8.59367 3.42831 8.69157 3.33855 8.76629 3.30119L8.31907 2.40677ZM7.05334 5.82198V12.1611H8.05334V5.82198H7.05334ZM7.85883 12.6589L12.6983 10.2392L12.2511 9.34476L7.41162 11.7645L7.85883 12.6589ZM12.3017 10.2392L17.1412 12.6589L17.5884 11.7645L12.7489 9.34476L12.3017 10.2392ZM17.9467 12.1611V5.82198H16.9467V12.1611H17.9467ZM12.0053 2.85931C12.6564 2.85931 13.7816 2.88383 14.7888 2.95694C15.2937 2.99358 15.7574 3.04165 16.1133 3.10257C16.2921 3.13318 16.4313 3.16499 16.5297 3.19601C16.6503 3.234 16.6411 3.25014 16.5985 3.20753L17.3056 2.50043C17.164 2.35889 16.9672 2.28537 16.8302 2.24221C16.671 2.19207 16.4825 2.15123 16.282 2.11691C15.8794 2.04798 15.3786 1.99711 14.8611 1.95956C13.8237 1.88426 12.6734 1.85931 12.0053 1.85931V2.85931ZM16.5985 3.20753C16.591 3.20002 16.6062 3.21331 16.6335 3.27212C16.6592 3.32729 16.6869 3.40385 16.7147 3.50328C16.7704 3.70261 16.8161 3.95713 16.8517 4.23966C16.9226 4.80311 16.9467 5.42449 16.9467 5.82198H17.9467C17.9467 5.39503 17.9213 4.73027 17.8438 4.11477C17.8052 3.80782 17.752 3.49966 17.6778 3.23421C17.6102 2.99223 17.5027 2.6976 17.3056 2.50043L16.5985 3.20753ZM17.1412 12.6589C17.5113 12.844 17.9467 12.5748 17.9467 12.1611H16.9467C16.9467 11.8315 17.2936 11.6171 17.5884 11.7645L17.1412 12.6589ZM12.6983 10.2392C12.5735 10.3016 12.4265 10.3016 12.3017 10.2392L12.7489 9.34476C12.5922 9.26641 12.4078 9.26641 12.2511 9.34476L12.6983 10.2392ZM7.05334 12.1611C7.05334 12.5749 7.48876 12.844 7.85884 12.6589L7.41161 11.7645C7.70645 11.6171 8.05334 11.8315 8.05334 12.1611H7.05334Z" fill="#F89C26"/>
    <path d="M12.4997 9.77935C14.0978 8.64868 16.2876 3.46845 15.8995 2.90266C15.363 2.49883 10.7069 1.99724 9.1248 3.26169C9.46679 5.34599 11.0926 8.28615 12.4997 9.77935Z" stroke="#F89C26"/>
</svg>
