<svg width="25" height="25" viewBox="0 0 25 25" fill="none" xmlns="http://www.w3.org/2000/svg">
    <circle cx="18.654" cy="15.6015" r="2.34928" fill="#F49A24" fill-opacity="0.3"/>
    <path d="M4.84032 16.3299V15.5639H3.30837V16.3299C3.30837 17.7519 3.87328 19.1157 4.87881 20.1212C5.88435 21.1268 7.24814 21.6917 8.67018 21.6917H10.9681V20.1597H8.67018C7.65444 20.1597 6.6803 19.7562 5.96206 19.038C5.24382 18.3197 4.84032 17.3456 4.84032 16.3299ZM18.6278 8.67012V9.4361H20.1598V8.67012C20.1598 7.24808 19.5949 5.88429 18.5893 4.87875C17.5838 3.87322 16.22 3.30831 14.798 3.30831H12.5V4.84026H14.798C15.3009 4.84026 15.7989 4.93932 16.2636 5.13179C16.7283 5.32426 17.1505 5.60636 17.5061 5.962C17.8617 6.31764 18.1438 6.73984 18.3363 7.2045C18.5288 7.66916 18.6278 8.16718 18.6278 8.67012ZM8.67018 8.67012H4.07435C3.4649 8.67012 2.88042 8.91222 2.44947 9.34317C2.01853 9.77411 1.77643 10.3586 1.77643 10.968V12.5H3.30837V10.968C3.30837 10.7649 3.38907 10.5701 3.53272 10.4264C3.67637 10.2828 3.8712 10.2021 4.07435 10.2021H8.67018C8.87333 10.2021 9.06816 10.2828 9.21181 10.4264C9.35545 10.5701 9.43615 10.7649 9.43615 10.968V12.5H10.9681V10.968C10.9681 10.3586 10.726 9.77411 10.2951 9.34317C9.86411 8.91222 9.27963 8.67012 8.67018 8.67012ZM6.37226 7.90415C6.97824 7.90415 7.57062 7.72446 8.07447 7.38779C8.57832 7.05113 8.97103 6.57261 9.20293 6.01276C9.43483 5.45291 9.4955 4.83686 9.37728 4.24252C9.25906 3.64819 8.96726 3.10225 8.53876 2.67376C8.11027 2.24527 7.56434 1.95346 6.97 1.83524C6.37566 1.71702 5.75962 1.77769 5.19976 2.00959C4.63991 2.24149 4.1614 2.6342 3.82473 3.13805C3.48807 3.64191 3.30837 4.23428 3.30837 4.84026C3.30837 5.65285 3.63118 6.43217 4.20577 7.00676C4.78036 7.58135 5.55967 7.90415 6.37226 7.90415ZM6.37226 3.30831C6.67525 3.30831 6.97144 3.39816 7.22337 3.56649C7.47529 3.73483 7.67165 3.97408 7.7876 4.25401C7.90355 4.53394 7.93388 4.84196 7.87477 5.13913C7.81566 5.4363 7.66976 5.70926 7.45551 5.92351C7.24127 6.13775 6.9683 6.28366 6.67113 6.34277C6.37396 6.40188 6.06594 6.37154 5.78601 6.25559C5.50609 6.13964 5.26683 5.94329 5.0985 5.69136C4.93017 5.43944 4.84032 5.14325 4.84032 4.84026C4.84032 4.43396 5.00172 4.04431 5.28902 3.75701C5.57631 3.46971 5.96597 3.30831 6.37226 3.30831ZM20.9257 19.3937H16.3299C15.7205 19.3937 15.136 19.6358 14.705 20.0668C14.2741 20.4977 14.032 21.0822 14.032 21.6917V23.2236H15.5639V21.6917C15.5639 21.4885 15.6446 21.2937 15.7883 21.15C15.9319 21.0064 16.1268 20.9257 16.3299 20.9257H20.9257C21.1289 20.9257 21.3237 21.0064 21.4674 21.15C21.611 21.2937 21.6917 21.4885 21.6917 21.6917V23.2236H23.2237V21.6917C23.2237 21.0822 22.9816 20.4977 22.5506 20.0668C22.1197 19.6358 21.5352 19.3937 20.9257 19.3937ZM15.5639 15.5639C15.5639 16.1699 15.7436 16.7622 16.0803 17.2661C16.417 17.7699 16.8955 18.1626 17.4553 18.3945C18.0152 18.6264 18.6312 18.6871 19.2256 18.5689C19.8199 18.4507 20.3658 18.1589 20.7943 17.7304C21.2228 17.3019 21.5146 16.7559 21.6328 16.1616C21.7511 15.5673 21.6904 14.9512 21.4585 14.3914C21.2266 13.8315 20.8339 13.353 20.33 13.0163C19.8262 12.6797 19.2338 12.5 18.6278 12.5C17.8152 12.5 17.0359 12.8228 16.4613 13.3974C15.8867 13.972 15.5639 14.7513 15.5639 15.5639ZM20.1598 15.5639C20.1598 15.8669 20.0699 16.1631 19.9016 16.415C19.7333 16.6669 19.494 16.8633 19.2141 16.9792C18.9342 17.0952 18.6261 17.1255 18.329 17.0664C18.0318 17.0073 17.7588 16.8614 17.5446 16.6471C17.3303 16.4329 17.1844 16.1599 17.1253 15.8627C17.0662 15.5656 17.0965 15.2576 17.2125 14.9776C17.3284 14.6977 17.5248 14.4584 17.7767 14.2901C18.0287 14.1218 18.3248 14.0319 18.6278 14.0319C19.0341 14.0319 19.4238 14.1933 19.7111 14.4806C19.9984 14.7679 20.1598 15.1576 20.1598 15.5639Z" fill="#F89C26"/>
</svg>
