<svg width="24" height="24" viewBox="0 0 24 24" fill="none" xmlns="http://www.w3.org/2000/svg">
    <path d="M21.25 11.9995H8.895M4.534 11.9995H2.75M4.534 11.9995C4.534 11.4214 4.76368 10.8669 5.17251 10.458C5.58134 10.0492 6.13583 9.81952 6.714 9.81952C7.29217 9.81952 7.84666 10.0492 8.25549 10.458C8.66432 10.8669 8.894 11.4214 8.894 11.9995C8.894 12.5777 8.66432 13.1322 8.25549 13.541C7.84666 13.9498 7.29217 14.1795 6.714 14.1795C6.13583 14.1795 5.58134 13.9498 5.17251 13.541C4.76368 13.1322 4.534 12.5777 4.534 11.9995ZM21.25 18.6065H15.502M15.502 18.6065C15.502 19.1848 15.2718 19.7399 14.8628 20.1489C14.4539 20.5578 13.8993 20.7875 13.321 20.7875C12.7428 20.7875 12.1883 20.5568 11.7795 20.148C11.3707 19.7392 11.141 19.1847 11.141 18.6065M15.502 18.6065C15.502 18.0282 15.2718 17.4741 14.8628 17.0652C14.4539 16.6563 13.8993 16.4265 13.321 16.4265C12.7428 16.4265 12.1883 16.6562 11.7795 17.065C11.3707 17.4739 11.141 18.0284 11.141 18.6065M11.141 18.6065H2.75M21.25 5.39252H18.145M13.784 5.39252H2.75M13.784 5.39252C13.784 4.81435 14.0137 4.25986 14.4225 3.85103C14.8313 3.4422 15.3858 3.21252 15.964 3.21252C16.2503 3.21252 16.5338 3.26891 16.7983 3.37847C17.0627 3.48802 17.3031 3.6486 17.5055 3.85103C17.7079 4.05346 17.8685 4.29378 17.9781 4.55827C18.0876 4.82276 18.144 5.10624 18.144 5.39252C18.144 5.67881 18.0876 5.96228 17.9781 6.22677C17.8685 6.49126 17.7079 6.73159 17.5055 6.93402C17.3031 7.13645 17.0627 7.29703 16.7983 7.40658C16.5338 7.51614 16.2503 7.57252 15.964 7.57252C15.3858 7.57252 14.8313 7.34285 14.4225 6.93402C14.0137 6.52519 13.784 5.9707 13.784 5.39252Z" stroke="white" stroke-width="1.5" stroke-miterlimit="10" stroke-linecap="round"/>
</svg>
