<svg width="25" height="25" viewBox="0 0 25 25" fill="none" xmlns="http://www.w3.org/2000/svg">
    <path fill-rule="evenodd" clip-rule="evenodd" d="M19.3885 2.59045H5.61248C5.45004 2.59045 5.31836 2.72214 5.31836 2.88457V4.90024H19.6826V2.88457C19.6826 2.72213 19.5509 2.59045 19.3885 2.59045ZM5.31836 20.1823V5.90024H19.6826V20.1823H5.31836ZM5.31836 21.1823V22.1153C5.31836 22.2778 5.45004 22.4095 5.61248 22.4095H19.3885C19.5509 22.4095 19.6826 22.2778 19.6826 22.1154V21.1823H5.31836ZM5.61248 1.59045C4.89776 1.59045 4.31836 2.16985 4.31836 2.88457V22.1153C4.31836 22.8301 4.89776 23.4095 5.61248 23.4095H19.3885C20.1032 23.4095 20.6826 22.8301 20.6826 22.1154V2.88457C20.6826 2.16985 20.1032 1.59045 19.3885 1.59045H5.61248Z" fill="#F49A24"/>
    <path d="M12.5002 13.8224C13.3102 11.7975 14.8143 11.5083 15.1449 11.5083C16.1367 12.0593 16.4673 13.8224 15.4755 15.806C14.3184 18.1201 10.8472 17.5691 9.85547 16.4672C10.5167 16.7978 11.839 15.4754 12.5002 13.8224Z" fill="#F49A24" fill-opacity="0.3"/>
    <circle cx="12.5002" cy="13.8636" r="3.59106" stroke="#F89C26"/>
    <path d="M7.50022 3.63613C7.50022 4.0127 7.19495 4.31797 6.81838 4.31797C6.44181 4.31797 6.13654 4.0127 6.13654 3.63613C6.13654 3.25956 6.44181 2.95428 6.81838 2.95428C7.19495 2.95428 7.50022 3.25956 7.50022 3.63613Z" fill="#F49A24" fill-opacity="0.3"/>
    <path fill-rule="evenodd" clip-rule="evenodd" d="M6.81838 3.31797C6.64267 3.31797 6.50022 3.46042 6.50022 3.63613C6.50022 3.81184 6.64267 3.95428 6.81838 3.95428C6.99409 3.95428 7.13654 3.81184 7.13654 3.63613C7.13654 3.46042 6.99409 3.31797 6.81838 3.31797ZM6.81838 4.31797C7.19495 4.31797 7.50022 4.0127 7.50022 3.63613C7.50022 3.25956 7.19495 2.95428 6.81838 2.95428C6.44181 2.95428 6.13654 3.25956 6.13654 3.63613C6.13654 4.0127 6.44181 4.31797 6.81838 4.31797Z" fill="#F49A24"/>
</svg>
