<svg width="24" height="24" viewBox="0 0 24 24" fill="none" xmlns="http://www.w3.org/2000/svg">
    <path d="M21.5513 11.045C21.8553 11.471 22.0073 11.685 22.0073 12C22.0073 12.316 21.8553 12.529 21.5513 12.955C20.1853 14.871 16.6963 19 12.0073 19C7.31732 19 3.82932 14.87 2.46332 12.955C2.15932 12.529 2.00732 12.315 2.00732 12C2.00732 11.684 2.15932 11.471 2.46332 11.045C3.82932 9.129 7.31832 5 12.0073 5C16.6973 5 20.1853 9.13 21.5513 11.045Z" stroke="#DA800B" stroke-width="1.5" stroke-linecap="round" stroke-linejoin="round"/>
    <path d="M15.0073 12C15.0073 11.2044 14.6913 10.4413 14.1286 9.87868C13.566 9.31607 12.803 9 12.0073 9C11.2117 9 10.4486 9.31607 9.886 9.87868C9.32339 10.4413 9.00732 11.2044 9.00732 12C9.00732 12.7956 9.32339 13.5587 9.886 14.1213C10.4486 14.6839 11.2117 15 12.0073 15C12.803 15 13.566 14.6839 14.1286 14.1213C14.6913 13.5587 15.0073 12.7956 15.0073 12Z" stroke="#DA800B" stroke-width="1.5" stroke-linecap="round" stroke-linejoin="round"/>
</svg>
