<svg width="21" height="18" viewBox="0 0 21 18" fill="none" xmlns="http://www.w3.org/2000/svg">
    <path d="M18.2653 1.8791C17.2053 0.8163 15.8001 0.167601 14.3036 0.0502008C12.8072 -0.0670992 11.3181 0.354501 10.1053 1.2391C8.83296 0.292701 7.24926 -0.136399 5.67316 0.0381006C4.09706 0.212601 2.64566 0.9778 1.61126 2.1797C0.576757 3.3815 0.0360773 4.9306 0.0980573 6.5151C0.160057 8.0996 0.820058 9.6017 1.94526 10.7191L8.15526 16.9391C8.67526 17.4509 9.37566 17.7377 10.1053 17.7377C10.8349 17.7377 11.5353 17.4509 12.0553 16.9391L18.2653 10.7191C19.4329 9.5443 20.0882 7.9553 20.0882 6.2991C20.0882 4.6428 19.4329 3.0538 18.2653 1.8791ZM16.8553 9.3391L10.6453 15.5491C10.5746 15.6204 10.4905 15.6771 10.3978 15.7157C10.3051 15.7544 10.2057 15.7743 10.1053 15.7743C10.0049 15.7743 9.90536 15.7544 9.81276 15.7157C9.72006 15.6771 9.63596 15.6204 9.56526 15.5491L3.35526 9.3091C2.57106 8.5074 2.13186 7.4305 2.13186 6.3091C2.13186 5.1876 2.57106 4.1107 3.35526 3.3091C4.15436 2.5201 5.23226 2.0776 6.35526 2.0776C7.47826 2.0776 8.55606 2.5201 9.35526 3.3091C9.44826 3.4028 9.55886 3.4772 9.68066 3.528C9.80256 3.5787 9.93326 3.6049 10.0653 3.6049C10.1973 3.6049 10.328 3.5787 10.4499 3.528C10.5717 3.4772 10.6823 3.4028 10.7753 3.3091C11.5745 2.5201 12.6523 2.0776 13.7753 2.0776C14.8983 2.0776 15.9761 2.5201 16.7753 3.3091C17.5703 4.1002 18.0239 5.1713 18.0388 6.2928C18.0538 7.4143 17.6289 8.497 16.8553 9.3091V9.3391Z" fill="#C3C3C3"/>
</svg>
