<svg width="25" height="25" viewBox="0 0 25 25" fill="none" xmlns="http://www.w3.org/2000/svg">
    <path d="M9.25611 4.93091H7.09351C6.51995 4.93091 5.96988 5.15875 5.56432 5.56432C5.15875 5.96988 4.93091 6.51995 4.93091 7.09351V20.0691C4.93091 20.6427 5.15875 21.1927 5.56432 21.5983C5.96988 22.0039 6.51995 22.2317 7.09351 22.2317H17.9065C18.4801 22.2317 19.0301 22.0039 19.4357 21.5983C19.8413 21.1927 20.0691 20.6427 20.0691 20.0691V7.09351C20.0691 6.51995 19.8413 5.96988 19.4357 5.56432C19.0301 5.15875 18.4801 4.93091 17.9065 4.93091H15.7439" stroke="#F89C26" stroke-width="0.94528" stroke-linecap="round" stroke-linejoin="round"/>
    <path d="M9.25607 4.93091C9.25607 4.35735 9.48392 3.80729 9.88948 3.40172C10.2951 2.99616 10.8451 2.76831 11.4187 2.76831H13.5813C14.1548 2.76831 14.7049 2.99616 15.1105 3.40172C15.516 3.80729 15.7439 4.35735 15.7439 4.93091C15.7439 5.50447 15.516 6.05453 15.1105 6.4601C14.7049 6.86566 14.1548 7.09351 13.5813 7.09351H11.4187C10.8451 7.09351 10.2951 6.86566 9.88948 6.4601C9.48392 6.05453 9.25607 5.50447 9.25607 4.93091Z" fill="#F49A24" fill-opacity="0.3" stroke="#F89C26" stroke-width="0.94528" stroke-linecap="round" stroke-linejoin="round"/>
    <path d="M9.25607 14.6626L11.4187 16.8252L15.7439 12.5" stroke="#F89C26" stroke-width="0.94528" stroke-linecap="round" stroke-linejoin="round"/>
</svg>
