<svg width="12" height="11" viewBox="0 0 12 11" fill="none" xmlns="http://www.w3.org/2000/svg">
    <g clip-path="url(#clip0_16_455)">
        <path d="M7.49368 5.11346C7.49368 5.46571 7.35376 5.80352 7.10468 6.05259C6.85561 6.30166 6.5178 6.44159 6.16556 6.44159C5.81332 6.44159 5.4755 6.30166 5.22643 6.05259C4.97736 5.80352 4.83743 5.46571 4.83743 5.11346C4.83743 4.76122 4.97736 4.42341 5.22643 4.17434C5.4755 3.92527 5.81332 3.78534 6.16556 3.78534C6.5178 3.78534 6.85561 3.92527 7.10468 4.17434C7.35376 4.42341 7.49368 4.76122 7.49368 5.11346Z" stroke="white" stroke-width="0.664062" stroke-linecap="round" stroke-linejoin="round"/>
        <path d="M3.66099 7.61775L5.5394 9.49616C5.70543 9.66201 5.9305 9.75517 6.16517 9.75517C6.39984 9.75517 6.62492 9.66201 6.79094 9.49616L8.66979 7.61775C9.16509 7.12243 9.50238 6.49136 9.63902 5.80435C9.77566 5.11734 9.70552 4.40524 9.43745 3.7581C9.16938 3.11095 8.71544 2.55783 8.13302 2.16867C7.5506 1.77952 6.86586 1.57181 6.16539 1.57181C5.46493 1.57181 4.78019 1.77952 4.19777 2.16867C3.61535 2.55783 3.1614 3.11095 2.89334 3.7581C2.62527 4.40524 2.55512 5.11734 2.69177 5.80435C2.82841 6.49136 3.1657 7.12243 3.66099 7.61775Z" stroke="white" stroke-width="0.664062" stroke-linecap="round" stroke-linejoin="round"/>
    </g>
    <defs>
        <clipPath id="clip0_16_455">
            <rect width="10.625" height="10.625" fill="white" transform="matrix(-1 0 0 1 11.4781 0.243683)"/>
        </clipPath>
    </defs>
</svg>
