<svg width="24" height="25" viewBox="0 0 24 25" fill="none" xmlns="http://www.w3.org/2000/svg">
    <g clip-path="url(#clip0_16_326)">
        <path d="M19.0013 9.20977L13.6683 5.06177C13.2002 4.69768 12.6242 4.5 12.0312 4.5C11.4383 4.5 10.8623 4.69768 10.3942 5.06177L5.06025 9.20977C4.73969 9.45905 4.48034 9.7783 4.30201 10.1431C4.12367 10.5079 4.03106 10.9087 4.03125 11.3148V18.5148C4.03125 19.0452 4.24196 19.5539 4.61704 19.929C4.99211 20.3041 5.50082 20.5148 6.03125 20.5148H18.0313C18.5617 20.5148 19.0704 20.3041 19.4455 19.929C19.8205 19.5539 20.0312 19.0452 20.0312 18.5148V11.3148C20.0312 10.4918 19.6513 9.71477 19.0013 9.20977Z" stroke="#F89C26" stroke-linecap="round" stroke-linejoin="round"/>
        <path d="M16 15.5C13.79 16.833 10.208 16.833 8 15.5" stroke="#F89C26" stroke-linecap="round" stroke-linejoin="round"/>
    </g>
    <defs>
        <clipPath id="clip0_16_326">
            <rect width="24" height="24" fill="white" transform="translate(0 0.5)"/>
        </clipPath>
    </defs>
</svg>
