<svg width="25" height="25" viewBox="0 0 25 25" fill="none" xmlns="http://www.w3.org/2000/svg">
    <path d="M6.54102 5.01215C6.54102 4.43749 6.75027 3.88637 7.12276 3.48002C7.49524 3.07368 8.00043 2.8454 8.5272 2.8454H16.4719C16.9987 2.8454 17.5039 3.07368 17.8764 3.48002C18.2489 3.88637 18.4581 4.43749 18.4581 5.01215V20.1794C18.4581 20.754 18.2489 21.3052 17.8764 21.7115C17.5039 22.1178 16.9987 22.3461 16.4719 22.3461H8.5272C8.00043 22.3461 7.49524 22.1178 7.12276 21.7115C6.75027 21.3052 6.54102 20.754 6.54102 20.1794V5.01215Z" stroke="#F89C26" stroke-linecap="round" stroke-linejoin="round"/>
    <path d="M18.353 5.25325L6.67285 5.25325V4.27227C7.14848 2.07593 11.8498 2.75197 14.9963 2.75195C18.7341 2.75192 18.3977 4.27227 18.353 5.25325Z" fill="#F89C26" fill-opacity="0.3"/>
    <path d="M18.3528 19.6741L6.67265 19.6741V20.6551C5.95921 22.7657 11.8496 22.2962 14.9961 22.2963C18.7339 22.2963 18.3975 20.6551 18.3528 19.6741Z" fill="#F89C26" fill-opacity="0.3"/>
    <path d="M6.72559 5.36554H18.1406" stroke="#F89C26" stroke-linecap="square"/>
    <path d="M6.72559 19.6344H18.1406" stroke="#F89C26" stroke-linecap="square"/>
</svg>
