<svg width="25" height="24" viewBox="0 0 25 24" fill="none" xmlns="http://www.w3.org/2000/svg">
    <path d="M19.9109 2.86023V7.01001C15.0136 4.56138 8.3348 5.91126 5.60754 6.89227V3.03683C9.81615 1.53586 16.2026 1.32984 19.9109 2.86023Z" fill="#F49A24" fill-opacity="0.3"/>
    <path d="M16.7618 17.9582V22.108H8.81549V17.8994C10.7285 16.987 15.8495 16.8693 16.7618 17.9582Z" fill="#F49A24" fill-opacity="0.3"/>
    <path d="M5.5327 22.2213V18.4473M5.5327 22.2213H9.01638M5.5327 22.2213H2.04901M20.048 22.2213V18.4473M20.048 22.2213H16.5644M20.048 22.2213H22.9511M5.5327 7.12534V3.06103C8.24223 2.09334 14.9386 0.738578 20.048 3.06103V7.12534M5.5327 7.12534C7.85515 5.96411 15.0026 4.23748 20.048 7.12534M5.5327 7.12534C8.73996 5.66462 14.8179 4.55649 20.048 7.12534M5.5327 7.12534V14.6733M20.048 7.12534V14.6733M5.5327 14.6733C8.04869 13.5121 14.4742 11.8864 20.048 14.6733M5.5327 14.6733V18.4473M20.048 14.6733V18.4473M5.5327 18.4473C6.34213 18.0426 7.55621 17.5858 9.01638 17.2528M20.048 18.4473C18.9088 17.8302 17.7341 17.4129 16.5644 17.1501M9.01638 22.2213V17.2528M9.01638 22.2213H16.5644M9.01638 17.2528C11.1673 16.7624 13.8522 16.5407 16.5644 17.1501M16.5644 22.2213V17.1501" stroke="#F89C26"/>
</svg>
