<svg width="25" height="25" viewBox="0 0 25 25" fill="none" xmlns="http://www.w3.org/2000/svg">
    <rect x="11.0703" y="14.038" width="3.57532" height="6.9209" fill="#F89C26" fill-opacity="0.4"/>
    <path d="M12.9382 2.66754C12.8113 2.56103 12.6549 2.50317 12.4939 2.50317C12.3329 2.50317 12.1765 2.56103 12.0496 2.66754L1.77441 11.2845L2.66303 12.4931L3.91961 11.4395V20.9589C3.92038 21.3665 4.07131 21.7572 4.33934 22.0454C4.60737 22.3337 4.97068 22.496 5.34974 22.4968H19.651C20.0301 22.4961 20.3935 22.3338 20.6615 22.0455C20.9296 21.7573 21.0805 21.3665 21.0812 20.9589V11.4465L22.3378 12.5L23.2264 11.2913L12.9382 2.66754ZM13.9305 20.9589H11.0703V14.8069H13.9305V20.9589ZM15.3606 20.9589V14.8069C15.3602 14.3992 15.2094 14.0083 14.9413 13.7199C14.6732 13.4316 14.3097 13.2694 13.9305 13.269H11.0703C10.6911 13.2694 10.3275 13.4315 10.0594 13.7199C9.7913 14.0082 9.64051 14.3992 9.64013 14.8069V20.9589H5.34974V10.2403L12.5004 4.24989L19.651 10.2484V20.9589H15.3606Z" fill="#F89C26"/>
</svg>
