<svg width="25" height="24" viewBox="0 0 25 24" fill="none" xmlns="http://www.w3.org/2000/svg">
    <mask id="mask0_16_460" style="mask-type:luminance" maskUnits="userSpaceOnUse" x="0" y="0" width="25" height="24">
        <path d="M24.0933 0H0.0932617V24H24.0933V0Z" fill="white"/>
    </mask>
    <g mask="url(#mask0_16_460)">
        <path fill-rule="evenodd" clip-rule="evenodd" d="M5.27686 13.902C6.84116 11.0104 9.53626 8.66678 13.9452 8.03698V4.33328L20.4267 10.8148L13.9452 17.2963V13.5C13.2475 13.5 12.5814 13.5336 11.9452 13.6019C9.96026 13.8148 8.26696 14.3644 6.81716 15.2798C5.64826 16.0178 4.63756 16.9936 3.75996 18.2222C4.05606 16.7417 4.54146 15.2613 5.27686 13.902ZM11.9452 15.614V17.2963C11.9452 18.1052 12.4325 18.8345 13.1798 19.144C13.9272 19.4536 14.7874 19.2825 15.3594 18.7105L21.8409 12.229C22.6219 11.448 22.6219 10.1816 21.8409 9.40058L15.3594 2.91908C14.7874 2.34708 13.9272 2.17598 13.1798 2.48558C12.4325 2.79508 11.9452 3.52438 11.9452 4.33328V6.39568C9.09386 7.12288 6.89436 8.56048 5.26406 10.4237C3.35016 12.611 2.30866 15.2808 1.79879 17.83C1.61389 18.7545 2.09976 19.6826 2.96486 20.0574C3.83006 20.4322 4.83946 20.1519 5.38746 19.3847C6.93306 17.2208 8.96076 15.9787 11.9452 15.614Z" fill="#C3C3C3"/>
    </g>
</svg>
