<svg width="27" height="27" viewBox="0 0 27 27" fill="none" xmlns="http://www.w3.org/2000/svg">
    <g clip-path="url(#clip0_0_27020)">
        <path d="M3.42395 23.3385L5.21145 19.2218C3.84392 17.2805 3.23184 14.9069 3.49008 12.5464C3.74832 10.1859 4.85913 8.00078 6.61405 6.40111C8.36897 4.80144 10.6473 3.8972 13.0216 3.85808C15.3959 3.81895 17.7028 4.64764 19.5095 6.18862C21.3162 7.7296 22.4984 9.87694 22.8342 12.2277C23.1701 14.5784 22.6366 16.9709 21.3337 18.9561C20.0309 20.9414 18.0483 22.383 15.7581 23.0103C13.4679 23.6377 11.0275 23.4077 8.89478 22.3635L3.42395 23.3385Z" stroke="#189653" stroke-width="1.625" stroke-linecap="round" stroke-linejoin="round"/>
        <path d="M9.92395 11.4221C9.92395 11.5657 9.98102 11.7035 10.0826 11.8051C10.1842 11.9067 10.322 11.9637 10.4656 11.9637C10.6093 11.9637 10.7471 11.9067 10.8486 11.8051C10.9502 11.7035 11.0073 11.5657 11.0073 11.4221V10.3387C11.0073 10.1951 10.9502 10.0573 10.8486 9.95571C10.7471 9.85413 10.6093 9.79706 10.4656 9.79706C10.322 9.79706 10.1842 9.85413 10.0826 9.95571C9.98102 10.0573 9.92395 10.1951 9.92395 10.3387V11.4221ZM9.92395 11.4221C9.92395 12.8586 10.4946 14.2364 11.5105 15.2522C12.5263 16.268 13.904 16.8387 15.3406 16.8387M15.3406 16.8387H16.424C16.5676 16.8387 16.7054 16.7817 16.807 16.6801C16.9085 16.5785 16.9656 16.4407 16.9656 16.2971C16.9656 16.1534 16.9085 16.0156 16.807 15.914C16.7054 15.8125 16.5676 15.7554 16.424 15.7554H15.3406C15.197 15.7554 15.0592 15.8125 14.9576 15.914C14.856 16.0156 14.799 16.1534 14.799 16.2971C14.799 16.4407 14.856 16.5785 14.9576 16.6801C15.0592 16.7817 15.197 16.8387 15.3406 16.8387Z" stroke="#189653" stroke-width="1.625" stroke-linecap="round" stroke-linejoin="round"/>
    </g>
    <defs>
        <clipPath id="clip0_0_27020">
            <rect width="26" height="26" fill="white" transform="translate(0.17395 0.588745)"/>
        </clipPath>
    </defs>
</svg>
