<svg width="40" height="40" viewBox="0 0 40 40" fill="none" xmlns="http://www.w3.org/2000/svg">
    <g clip-path="url(#clip0_16_73)">
        <path d="M17.5073 33.3333H8.34066C7.4566 33.3333 6.60876 32.9821 5.98363 32.357C5.35851 31.7319 5.00732 30.884 5.00732 30V15C5.00732 14.1159 5.35851 13.2681 5.98363 12.643C6.60876 12.0178 7.4566 11.6667 8.34066 11.6667H10.0073C10.8914 11.6667 11.7392 11.3155 12.3643 10.6903C12.9895 10.0652 13.3407 9.21738 13.3407 8.33332C13.3407 7.8913 13.5163 7.46737 13.8288 7.15481C14.1414 6.84225 14.5653 6.66666 15.0073 6.66666H25.0073C25.4494 6.66666 25.8733 6.84225 26.1858 7.15481C26.4984 7.46737 26.674 7.8913 26.674 8.33332C26.674 9.21738 27.0252 10.0652 27.6503 10.6903C28.2754 11.3155 29.1233 11.6667 30.0073 11.6667H31.674C32.558 11.6667 33.4059 12.0178 34.031 12.643C34.6561 13.2681 35.0073 14.1159 35.0073 15V19.1667" stroke="#5E9DE3" stroke-width="2.5" stroke-linecap="round" stroke-linejoin="round"/>
        <path d="M24.2888 19.0843C23.9148 18.4642 23.4106 17.9327 22.8109 17.5266C22.2113 17.1206 21.5307 16.8496 20.816 16.7325C20.1014 16.6154 19.3698 16.6549 18.6719 16.8483C17.9741 17.0417 17.3265 17.3844 16.7741 17.8527C16.2217 18.321 15.7776 18.9036 15.4726 19.5604C15.1675 20.2172 15.0088 20.9324 15.0073 21.6566C15.0059 22.3808 15.1618 23.0966 15.4642 23.7547C15.7666 24.4127 16.2083 24.9971 16.7588 25.4676" stroke="#5E9DE3" stroke-width="2.5" stroke-linecap="round" stroke-linejoin="round"/>
        <path d="M29.6712 34.6958L26.0512 36.5924C25.9437 36.6484 25.8229 36.6733 25.7021 36.6645C25.5813 36.6557 25.4653 36.6135 25.3671 36.5427C25.2689 36.4718 25.1924 36.375 25.146 36.2631C25.0996 36.1512 25.0852 36.0287 25.1045 35.9091L25.7962 31.8908L22.8678 29.0458C22.7804 28.9613 22.7185 28.8539 22.6892 28.7359C22.6599 28.6179 22.6644 28.4941 22.7021 28.3785C22.7398 28.263 22.8093 28.1603 22.9025 28.0823C22.9958 28.0043 23.1091 27.9541 23.2295 27.9374L27.2762 27.3508L29.0862 23.6958C29.1403 23.5869 29.2237 23.4953 29.3271 23.4313C29.4304 23.3673 29.5496 23.3333 29.6712 23.3333C29.7927 23.3333 29.9119 23.3673 30.0152 23.4313C30.1186 23.4953 30.202 23.5869 30.2562 23.6958L32.0662 27.3508L36.1128 27.9374C36.2329 27.9547 36.3457 28.0052 36.4386 28.0833C36.5314 28.1614 36.6006 28.2639 36.6382 28.3792C36.6758 28.4945 36.6804 28.6181 36.6515 28.7359C36.6226 28.8537 36.5613 28.961 36.4745 29.0458L33.5462 31.8908L34.2362 35.9075C34.2569 36.0272 34.2436 36.1504 34.1978 36.263C34.152 36.3756 34.0756 36.4731 33.9771 36.5445C33.8787 36.6158 33.7623 36.6581 33.641 36.6666C33.5198 36.6751 33.3985 36.6494 33.2912 36.5924L29.6712 34.6958Z" stroke="#5E9DE3" stroke-width="2.5" stroke-linecap="round" stroke-linejoin="round"/>
    </g>
    <defs>
        <clipPath id="clip0_16_73">
            <rect width="40" height="40" fill="white" transform="translate(0.00732422)"/>
        </clipPath>
    </defs>
</svg>
